<?xml version="1.0" encoding="utf-8"?>
<!-- Generator: Adobe Illustrator 27.6.1, SVG Export Plug-In . SVG Version: 6.00 Build 0)  -->
<svg version="1.1" id="Layer_1" xmlns="http://www.w3.org/2000/svg" xmlns:xlink="http://www.w3.org/1999/xlink" x="0px" y="0px"
	 viewBox="0 0 600.1 386.2" style="enable-background:new 0 0 600.1 386.2;" xml:space="preserve">
<style type="text/css">
	.st0{fill:#FFFFFF;}
</style>
<g>
	<g>
		<path class="st0" d="M246.3,8.3c10.2-5.8,22.1-7.3,33.6-8.2c10.9-0.4,21.9,0.8,32.4,3.8c4.2,1.4,8.6,3,12.2,5.7
			c2.2,1.9,1.5,5,1.4,7.5c-2.2,9.1-3.2,18.4-5.4,27.5c-1.2,6.7-2.1,13.6-3.9,20.2c-4,7-12.1,10-19.2,12.9
			c-8.2,2.3-16.9,3.9-25.4,2.6c-3.6-0.2-6.7-2.2-10.2-3.1c7.4,7.1,18.5,8.2,28.2,8c8.2-1,17-2.9,23.3-8.7c2-1.7,3.2-4.2,5-6
			c5.1-0.9,10.1-2.4,15-4c5.1-1.2,13.2,0,13.4,6.6c-2.4,10.1-10.5,17.7-19.4,22.4c-3.6,2-9.3,2.4-9.5,7.6c-3,1-6,1.8-8.8,3.2
			c0,0.7,0,2.2,0,2.9c1.5,0.1,2.9,0.1,4.4,0.2c-0.2,0.4-0.5,1.2-0.6,1.6c-3,1-6.2,1.6-9.4,1.2c-2.2-0.8-2.8-3.6-5.1-4.2
			c-2.3-0.7-2.8-4.3-5.7-3.5c-1.3,4.7,1.1,10.6-2.9,14.4c-1.6,1.6-5.4,3.2-3.3,5.9c3.3,2.4,7-1.7,10.2,0.6c4.6,2.5,8.7,5.9,13.7,7.6
			c2.8,0.7,5.3-1.1,7.9-1.8c-1.4,2.9-3.3,6.8-7.2,6.1c-4,0.6-7.5-1.8-11.1-2.9c-4.4-0.4-9,0.6-13.2-1.1c0.1-1.4,0.2-2.9,0.3-4.3
			c-3.9,0.8-7.3,2.6-10.6,4.7c-2.5,1.6-5.4,0.1-7.9-0.7c1.4,1.8,3,4.4,5.6,4.4c3.9,0.5,6.9-3.1,10.7-2.6c2.6,0.4,5.3,0.6,8,0.8
			c0.2,2.5,0.2,5,0.1,7.5c-3.2,1.7-6.9,1.2-10.4,1.3c3,4.5,9.2,1.6,13.7,1.9c-1.2,1.9-2.8,3.5-3.7,5.5c-1.7,3.2,0.3,7.3-1.8,10.3
			c-4,2.2-8.5,0.4-12.3-1.4c-5.8-3.5-7.6-10.4-11.8-15.2c-1.1-1.1-0.5-2.9-0.7-4.2c0-9.6,0-19.1,0-28.6c3.6,2,8.7,2.7,11.8-0.6
			c2.2-1.6,2.8-4.2,3.5-6.6c-6.1-0.8-12.3-1.1-18.3-2.3c-0.4,3,0.5,5.7,1.7,8.4c-0.7,10.7,0.7,21.4-0.5,32c-3-2-6.6-3.9-7.9-7.5
			c-2.2-4.2-1-9.1-1.3-13.7c-2-0.3-4.7,0.8-5.9-1.3c-0.2-1.5-0.1-3.1-0.2-4.6c-0.4-4.6-4.3-8.3-4-13c0-2,1.7-3.3,2.9-4.7
			c-10.6-3.3-20.6-10.5-25.5-20.7c-0.9-2.2-2.3-4.8-0.9-7c1.4-3.3,5.1-4.6,8.5-4.7c4.9-0.3,9.2,2.6,14,3c2.7,0.3,5.4,0.4,8.1,0.3
			c-3.5-18.1-5.8-36.5-9.1-54.6C242.3,12.2,244.3,9.8,246.3,8.3z M282.7,6.4c2.9,1.1,6.1,0.4,9.1,0.8c5.7,1,11.4,1.9,16.8,4.2
			c1.3,0.3,2.4,2.5,0.8,3.1c-5.4,2.9-11.8,3-17.7,4.4c-7.3,0.6-14.7-0.4-22,0.5c3.4,0.9,7,0.5,10.4,1.2c7.1,1.1,14.2,0.1,21.2-1
			c5.7-1.1,11.4-2.8,16.5-5.7c0-0.4,0-1.1,0-1.5c-4.7-3.1-10.5-4.2-16-5.3C295.7,5.6,289.1,6,282.7,6.4z M313.1,23.4
			c-0.5,1.6-0.8,3.2-0.9,4.9c-0.8,12.2-2.7,24.2-3.2,36.3c3.5-3.4,3.3-8.7,4.4-13.1c2.4-10.4,4.8-20.9,6.8-31.4
			C317.9,21.3,315.3,22,313.1,23.4z M229.7,74.8c0.5,1.6,1.4,3,2.6,4.1c4.9,5.2,10,10.5,16.7,13.3c8.5,4,18,6.6,27.4,5.7
			c-13.7-3.1-27.4-7.8-38.5-16.6C234.9,79.3,232.4,76.9,229.7,74.8z"/>
	</g>
	<path class="st0" d="M329.1,108.9c10.2,2.3,20.3,5.1,30,9c20.2,8.6,39.1,20.8,54.1,37c1.5,1.2,2.7,3.4,4.9,3.4c18,0,36,0.2,54,0.1
		c7.3,0.3,14.6-0.4,21.8,0.9c10.3,2.4,18.7,11.4,20.1,21.9c0.1,18.7,0,37.3,0,56c-1.7,0-3.3,0-5,0c0-18,0-36,0-54
		c-0.8-7.7-6.1-14.8-13.3-17.7c-4.9-2.3-10.4-1.2-15.7-1.6c-21.9,0.4-43.8,0-65.7,0.2c-11.1-13.1-24.8-23.8-39.5-32.7
		c-14.9-8.4-31.2-13.9-47.8-17.5C327.7,112.2,328.3,110.5,329.1,108.9z"/>
	<path class="st0" d="M326,116.6c22.9,3.2,44.1,13.5,62.9,26.7c9.1,6.6,16.9,14.6,24.5,22.8c24.9,0,49.8,0,74.7,0
		c7-0.2,13.2,4.6,16.6,10.4c3.1,7.1,1.6,15.1,2,22.6c0.4,5-0.4,10-0.3,15.1c0.3,7.6,0.6,15.2,0.3,22.8c-1.2,0.1-2.4,0.2-3.6,0.3
		c-0.1-18,0-36-0.1-54.1c-0.6-6-5.5-11.2-11.1-12.9c-15.2-1.3-30.6-0.1-45.8-0.5c-11.6,0.3-23.1-0.3-34.7,0.1
		c-15.6-18.7-35.8-33.7-58.7-42.4c-8.8-2.9-17.5-6.1-26.7-7.6C326,119,326,117.4,326,116.6z"/>
	<path class="st0" d="M238,119.1c1.5-0.7,3.1-1.1,4.7-1.2c0.1,1.7,0.2,3.3,0.4,4.9c-13.9,5.8-26.9,13.4-38.5,23
		c-7,5.2-12.7,11.9-19,18c-25.5,0.5-51.1,0.1-76.6,0.3c-9.6,1.6-17.7,10.2-18,20c0,17.7,0,35.3,0,53c-1.7,0-3.3,0-5,0
		c0-18.4,0-36.7,0-55c0.7-9,6.8-17.3,15-21c4.2-2.3,9.2-2.4,13.9-2.7c15.7-0.2,31.4,0.1,47.1-0.1c7,0.4,14-0.4,21,0.2
		c10.2-10.4,20.9-20.4,33.4-27.9C223.2,126,230.6,122.5,238,119.1z"/>
	<path class="st0" d="M196.1,156.2c13.7-13.4,30-24.4,47.9-31.2c1.1,0.7,2.2,1.4,3.2,2.2c-19.1,8.1-37.2,19.3-51.5,34.6
		c-1.2,1.7-3.2,2.1-5.2,2.3c0,2.2-0.7,5.8-3.7,5.5c-25,0.5-49.9,0-74.9,0.2c-8-0.3-15.4,7.2-15,15.2c0,17.4,0.1,34.8,0,52.1
		c-1.2-0.1-2.5-0.1-3.8-0.2c0.3-17.8-0.3-35.6,0.4-53.4c0.3-8.8,7.6-16.6,16.4-17.4c25.6-0.1,51.2,0.2,76.8-0.2
		C190.4,163.2,192.4,158.9,196.1,156.2z"/>
	<path class="st0" d="M319.9,143.8c4.6,3.2,8.8,7,13.5,10c8.5,4.8,17.7,9.6,27.7,9.5c6.4,1.2,13.7,0.3,19.1,4.7
		c3.1,2.8,6.6,5.6,8.2,9.6c-4.9-1.9-9.8-4.8-15.2-4.5c-8.3-0.7-17.2,3.7-20.7,11.4c-2.9,6.1-2.9,13.3-1.5,19.8
		c0.4,3.4,2,6.6,2.3,10.1c-5.5-2.3-11.5-3.3-17.4-3.9c-3.2,0.2-6.5,0.7-9.7,0.9c-13.9,2.4-26.1,10.3-36.7,19.2
		c-4.8,3.8-8.9,8.4-13.7,12.3c-6.4-17.1-23.3-29.7-41.5-30.6c-4.2,0.4-8.2,1.7-12.4,2.6c1.8-7.5,6-14.1,11-19.9c1.8-2,3-4.4,4.3-6.6
		c-0.7-1-1.5-2-2.2-3c-8.6-1.6-17.5,1.6-25.8-1.2c0-1.2,0.1-2.3,0.1-3.5c17.3-8.3,37-11.3,52.9-22.6c1.6,6,1.8,12.4,2.5,18.6
		c1.5,10.6,1.6,21.3,4.4,31.7c1.6,6.8,4.2,13.3,7.1,19.7c5.6-12.2,14.4-22.6,24.1-31.8c4.5-5.1,9.7-9.7,13.5-15.4
		c5.3-7,8.1-15.9,7.5-24.6C321.5,151.9,320,147.9,319.9,143.8z"/>
	<path class="st0" d="M302.4,163.4c1.8-0.8,4.4-1.4,5.5,0.8c-0.6,4.2-2.4,8.3-1.7,12.6c0.5,3,0.8,6.1,0.9,9.1c-1,0.6-2,1.1-3,1.6
		c-2.5-2.4-4.7-5.2-7.5-7.2c-3.9-1.8-6.6,3.5-10.5,2.8c-2.8,0.4-5.1-1.4-7-3.1c-2.6,2.3-5.2,5-9,5.1c-0.3-2.8,0.9-5.3,1-8.1
		c0.3-4.5-2.1-8.6-3.2-12.8c5.5-0.9,9.1,4.7,14,5.7c3.3-1.5,6.7-0.4,10,0.4C295,167.6,298.7,165.4,302.4,163.4z"/>
	<g>
		<path class="st0" d="M412.6,185.1c0.7-0.7,1.3-1.4,2-2.1c2.6,4.2,8.4,2.6,12,5.6c3.4,1.6,4.4,5.8,3.1,9.2c-3.1,5.6-9.6,8-15.5,9.6
			c-2.7,1-5.6,0.9-8.5,0.9c0.9,6.5,3.4,12.8,6.9,18.4c1.2,2.2,3.4,3.4,5.4,4.8c7-3,8.8-10.9,12.6-16.8c2.9-3.4,8-7.4,12.4-4.1
			c1.1,6.8-6.4,10.6-12,11.8c-0.2,2.6-1.2,6.7,2.1,7.7c6.5-1,8-8.1,11-12.9c2.1-4.2,6.3-7.4,11.1-8c2.7-0.2,6.3,1.3,6.1,4.4
			c-1.9-0.5-3.2-2.6-5.1-2.4c-6.5,3.3-10.6,10.2-12.5,17.1c0.6,0.3,1.8,0.8,2.4,1.1c5.6-3.5,7.4-10.1,11.2-15.1c1.4,0,2.7,0,4.1,0
			c-1.6,5.2-5.6,9.6-5.4,15.3c4.3-1.2,5.9-6,7.9-9.5c2.8-8.4,6-16.7,10.8-24.1c1.4-1.4,3-3.1,5.2-2.7c1.9-0.1,2.5,2.3,1.9,3.8
			c-2.3,8.6-7.2,16.3-13.5,22.6c-1.5,2.8-3.2,6.8-0.9,9.6c1.3,0.4,2.8,0.2,3.9-0.7c3.1-2.7,3.8-7.2,7.1-9.7
			c-1.2,4.9-3.8,10.1-8.5,12.4c-2.2-0.1-5.3,1-6.5-1.3c-0.3-1.5-0.3-3.1-0.4-4.7c-1.5,2.1-2.6,4.8-5.2,5.9c-1.4,0.3-2.9,0.1-4.3,0
			c-0.6-1.7-1.2-3.4-1.7-5.1c-1.6,2.7-4.1,5.8-7.6,5.3c-2.3,0.2-2.6-2.5-3.5-4c-2,2.7-5.1,4.7-8.6,4c-3,0.5-5.3-2.2-5.5-5
			c-2.1,3.9-5.5,7.9-10.4,7.7c-5.9-0.9-9.3-6.5-11.1-11.7c-1.5-4-3-8-3.3-12.3c-5.1,9-10.5,19.4-21,22.9c-5,0.9-11.1,1.7-15.3-1.9
			c-1.9-2.1-2-5.4-0.1-7.5c3.6-3,9.7-3.2,13.3-0.1c-2.6,0-5.3-2.1-7.6-0.2c-3.5,1.3-3.1,6.8,0.3,7.9c2.6,0.2,5.5,0.6,8-0.7
			c5.9-2.8,10-8.1,13.3-13.6c6.4-9.8,11.2-20.6,18-30.1c-6.1-0.7-12.1,0.3-18.2,0.9c-7,1.4-14.7,3.8-19,10c-1.8,2.9-2.7,7.5,0.3,10
			c2,2.3,5.3,1.8,7.9,1.5c2.6-1.9,4.5-4.7,6.4-7.3c0.7,8.2-11.2,12.6-16.9,7.3c-3.5-3-3-8.3-1.5-12.2c3.8-6.6,11.3-10,18.5-11.4
			C396.3,184.4,404.6,182.9,412.6,185.1z M414.5,187.5c-3.7,6.2-7.8,12.2-11,18.6c7.2,0.1,15.2-1.6,19.9-7.6
			c1.9-1.8,2.3-4.7,1.5-7.1C422.5,188.4,418,187.2,414.5,187.5z M474.6,203.8c-1.9,4.1-4.2,8.1-5.6,12.4c4.7-6.2,9.8-12.7,11.2-20.5
			C477.3,197.5,476.2,200.9,474.6,203.8z M431.9,220.4c4.9-0.7,9-4.6,9.3-9.6C436.7,211.9,434.1,216.6,431.9,220.4z"/>
	</g>
	<g>
		<path class="st0" d="M146.3,186.3c9.2-1.5,18.2,1.8,26.7,4.8c2.3-1.4,4.2-3.9,7.3-3.3c-0.1,2.5-2.9,2.6-4.5,3.9
			c2.9,1.2,6,2.2,9.1,2.3c2.9,0,5.8,1.6,8.6,0.8c1.2-0.8,2.3-1.6,3.6-2.2c-0.3,1.4-0.8,2.9-1.3,4.2c-3,0.6-6,0.6-9,0
			c-3.9,7.1-8.3,14-11.4,21.6c3.9-3.4,8.3-7.4,13.8-7.5c-2.4,6.2-7.1,11.8-7.4,18.7c3.8-0.7,5.5-4.5,7.2-7.5
			c2.5-5.1,5.4-10.9,11.3-12.8c2.5-1.4,4.5,0.9,5.9,2.8c-1.1,2.2-2,4.6-4,6.2c-2.1,2.3-5.4,2.7-8.1,3.9c-1.8,1.3-1,3.8-1.2,5.7
			c0.8,0.7,1.7,1.3,2.5,2c3.8-0.7,6.5-3.8,8.3-7c1-1.6,1.5-3.7,3.4-4.6c-1.2,4.9-3.7,10.3-8.5,12.6c-2.1,0.3-4.3,0.3-6.5,0
			c-1.7-1-2.5-2.8-3.4-4.3c-1.4,1.5-2.7,3.1-4.2,4.4c-1.8,0.3-3.7,0.1-5.5,0.1c-3.4-5.4,1.7-10.4,3.2-15.4
			c-6.2,2.8-10.1,9.2-12.8,15.2c-1.6,0.1-3.1,0.1-4.7,0.1c5.7-11.7,11.4-23.3,17.3-34.9c-2.6-0.9-5.2-1.8-7.9-2.4
			c-4.8,8.6-7,18.4-11.2,27.3c-2.9,5.7-7.4,11.3-13.8,13.2c-9.4,4.1-20.8,3.4-29.5-2.1c-5.3-3.6-7-10.1-6-16.2
			c-0.2-3,2.1-5.2,3.6-7.5c1.1-1.8,3.2-2.4,5.2-2.7c-0.3,2.4-2.6,3.4-4.2,4.7c-1.8,3.4-3.2,7.3-2,11.2c1.9,7.2,9.2,12.5,16.6,12.4
			c9.1,0.7,18.4-3.9,23.7-11.3c6.6-9.2,10.5-19.9,15.6-29.9c-6.6-2-13.4-3.3-20.3-2.9c-8.4-0.4-17.4,7.1-16,16
			c2.8,4,8.7,4.5,12.3,1.3c2.3-1.3,1.9-5.4,5-5.4c-0.5,4.4-3.6,8.6-8.1,9.3c-4.7,1.3-10.7-1-12.1-6c-2.2-4.2-0.1-9.1,2.4-12.7
			C137.9,188.9,142.2,187.4,146.3,186.3z M194.6,220.4c4.7-0.9,9-4.4,9.2-9.5C199.2,212.1,196.6,216.4,194.6,220.4z"/>
	</g>
	<path class="st0" d="M278.1,190.1c1.3,0,2.5,0,3.8,0c1.1,1.8,1.2,3.9,1.2,5.9c-1.2,0.5-2.5,1-3.8,1.4
		C277.5,195.2,276.2,192.6,278.1,190.1z"/>
	<path class="st0" d="M273.1,208.2c1.3-0.3,2.5-0.7,3.8-1c1.7,2.1,2.4,8.4-1.7,7.9C273.3,213.2,271,210.7,273.1,208.2z"/>
	<path class="st0" d="M0.7,249.2c1.6-3,5.3-3.6,8.4-4.1c5.6,0,11.3-0.1,16.9,0c1.5-0.2,2.3,1.1,3,2.2c0.4,3.9,0,7.8,0.2,11.8
		c-3.3,2.7-7.1,4.7-11.1,6.3c-0.4-3.3,0.5-6.7-0.3-10c-1.5-1.9-3.7-0.9-5.6-0.4c0,11,0,22,0,33c-0.1,1.4,0.5,2.7,1.1,4
		c1.9-0.1,3.9-0.1,5.8-0.2c1.1-3.1,1.1-6.4,0.6-9.6c-1.4-0.2-2.8-0.4-4.1-0.6c-0.2-2.4-0.4-4.9-0.2-7.3c1.2-1.9,3.5-2.1,5.4-2.8
		c2.9-1.1,5.6-2.8,8.9-2.8c0.7,4.2-1,8.6,0.2,12.8c0.9,3.8,0,7.7,0.1,11.5c0.1,2.4-0.3,4.9-2,6.7c-2.9,1.8-6.4,1.4-9.6,1.7
		c-4.6,0.7-9.3,0.5-13.9,0.1c-1.3-0.1-2.3-0.9-3.1-1.8c-0.6-3.6,0.2-7.4-0.5-11c-0.8-4.5-0.7-9.2-0.4-13.8c0.3-3.9-0.6-7.9,0-11.8
		C1.2,258.6-0.2,253.9,0.7,249.2z"/>
	<path class="st0" d="M37.9,245.3c8.4-0.2,16.8-0.2,25.2-0.2c2.1-0.1,4,0.7,5.9,1.3c-1.3,3.7,0.5,7.5-0.6,11.1
		c-2.3,3.3-6.3,5.2-10.2,5.9c-0.1-2.8-0.1-5.5-0.2-8.2c-1.7-0.1-3.3-0.3-5-0.4c0,5.2-0.2,10.5,0,15.8c2.7-1.1,5.2-2.8,8-3.8
		c0.9,3.5,1.4,7.3,0.4,10.8c-3,2-7.1,2.7-9.1,6c-0.8,3.1,0.5,6.3,0.7,9.4c1.6-0.1,3.2-0.2,4.8-0.3c0.3-1.6-0.1-3.5,0.9-4.8
		c3.4-2.1,6.7-4.2,10.4-5.7c0,6.4,0,12.7,0,19.1c-10.6,0.1-21.1-0.1-31.7,0.2c1.3-2.9,4.4-4.9,4.5-8.3c0-3.3-0.8-6.6,0.1-9.9
		c0.1-8.7,0-17.4,0.1-26.2c-0.2-2.9-0.3-6.3-2.8-8.2C38,248,38,246.6,37.9,245.3z"/>
	<path class="st0" d="M75.9,245.4c4.5-0.4,9.1-0.1,13.6,0c1.3,4.5,4.1,8.6,4.9,13.2c4.1,5,5,11.7,8.7,17c0.4-7.5-0.4-15-0.1-22.5
		c0.5-3.1-2.3-5.2-3.4-7.8c5.9-0.2,11.8,0,17.7-0.1c0.2,3.2-3.5,4.7-3.2,7.9c-0.1,16,0,32,0,48.1c-3.5,0-7.1,0.1-10.6-0.1
		c-1.3-3-3-5.8-4.6-8.7c-2.7-6-4.9-12.2-8.7-17.6c-0.2,7.4-0.2,14.9-0.1,22.3c0.8,1.5,2.3,2.6,3.3,4.1c-5.9,0.4-11.9,0.1-17.8-0.1
		c0.5-1.5,1.9-2.4,3-3.5c0.8-1.3,0.3-2.9,0.4-4.4c0-14-0.1-28,0.1-41.9C78.3,249.1,76.9,247.3,75.9,245.4z"/>
	<path class="st0" d="M123.5,245.1c11,0.4,22-0.2,33,0c-0.9,4.4-0.2,8.9-0.5,13.3c-3.7-1.2-6.1-5.8-10.3-4.4
		c-1,13.3-0.3,26.6-0.6,40c0.2,3.1,3.3,4.4,4.5,7c-6.4,0.2-12.7,0.9-19.1,0.1c1-2.1,3.7-3.5,3.7-6c0-13.7,0-27.4,0-41
		c-1.5,0.1-3.1,0-4.6,0.3c-1.8,1.8-3.5,4.2-6.4,4C122.9,253.9,122.9,249.5,123.5,245.1z"/>
	<path class="st0" d="M162.6,245.2c6-0.1,12-0.1,18,0c-0.7,3.2-3.3,5.7-3.4,9.1c-0.2,12.9-0.2,25.9-0.1,38.8c0.7,0,2.2,0,2.9,0
		c0.4-2.2,0.5-4.5,1.2-6.6c2.8-2.9,6.3-5,10-6.5c0.3,7-0.4,14-0.1,21.1c-4.6,1.7-9.3-0.1-13.9,0c-5.1,0-10.3,0-15.4,0.1
		c1-1.2,2.1-2.3,3.1-3.5c2-6,1.1-12.4,1.3-18.5c-0.2-6.1,0.5-12.2-0.6-18.2c0.1-2.6,0.9-5.1,0.6-7.7
		C165.7,250.2,163,248.1,162.6,245.2z"/>
	<path class="st0" d="M197.2,246.4c0.9-1.8,3-1.3,4.6-1.1c8.6,2.3,17.5-0.9,26.2,0.8c-0.1,4-0.1,8,0,12c-3.2,2.3-6.4,5.5-10.8,5.1
		c-0.1-2.7-0.2-5.4-0.2-8.1c-1.7,0-3.4,0-5,0c0.1,5.2-0.1,10.4,0.1,15.6c3-1.3,5.6-3.5,8.9-3.9c0.1,3.7,0,7.3,0.1,11
		c-3.1,1.2-6.1,2.9-9,4.4c0,3.5-0.1,7,0.3,10.6c1.8-0.2,3.6-0.4,5.3-0.6c0.1-1.6,0.2-3.2,0.3-4.8c3.6-1.4,6.8-3.7,10.1-5.5
		c0.6,1.3,1.2,2.7,0.9,4.1c-0.3,5.1-0.2,10.3-0.8,15.4c-10.5-0.3-21-0.4-31.5,0c0.6-2.7,3.4-4,4.3-6.5c0.3-4.4-0.1-8.8,0.4-13.1
		c-0.7-10.4-0.1-20.9-0.4-31.4C199.4,249.3,197.8,248.2,197.2,246.4z"/>
	<path class="st0" d="M235.6,245.2c5-0.2,10-0.1,15.1,0c2.5,7.1,4.4,14.4,6.8,21.5c1.9,3.8,2.6,8,4.1,11.9
		c0.9-6.2,3.8-11.9,6.3-17.6c1.5-5.1,3.5-10.1,4.7-15.3c5.4-1,11-0.7,16.5-0.3c-1.7,3.9-5.2,7.1-5.1,11.6c0.1,11.7,0.1,23.4,0,35.1
		c-0.2,3.5,1.8,6.6,4.1,9c-5.9,0-11.7-0.1-17.6,0.2c0.8-2.3,3.5-3.6,3.5-6.2c0-6.2,0.9-12.4-0.5-18.5c-2.9,5.7-4.6,11.9-7.2,17.7
		c-1.2,2.5,1,4.6,2,6.7c-4.6,0-9.1,0-13.7,0.1c2.2-3.4,0.8-7.1,0-10.7c-1.9-4.7-3.4-9.5-5.7-13.9c-0.5,5.9,0.3,11.7,0.1,17.6
		c-0.2,2.9,2.8,4.6,3.7,7.1c-6-0.2-12.1-0.2-18.1-0.3c1.2-1.6,3.2-2.7,3.6-4.7c1.2-2.9,0.2-6.1,0.5-9.2c0.3-5,0.3-10-0.4-15
		c1.2-6.3,0.5-12.7,0.7-19.1C239.5,249.9,236.7,247.9,235.6,245.2z"/>
	<path class="st0" d="M296.1,245.1c4.3-0.1,8.6,1.2,12.9,0.8c5.7,0.7,11.5-1.8,17.1,0.1c-0.1,4-0.1,8-0.1,12
		c-2.9,2.7-6.3,4.8-10.2,5.5c0.1-2.8,0.2-5.5-0.2-8.2c-1.7-0.1-3.4-0.1-5-0.1c0.3,5.2-0.8,10.5,0.1,15.6c2.8-1.3,5.3-3.2,8.3-4.2
		c0.1,3.7,0.2,7.4,0,11.1c-3.2,1.1-6,3.2-8.9,4.8c-0.1,3.4-0.1,6.8,0,10.2c1.9,0,3.8,0,5.7,0c0.1-1.7,0.3-3.4,0.4-5.1
		c3.7-1.6,6.8-4.2,10.5-5.7c0.6,5.4-0.1,10.8,0.1,16.2c0.1,1.3-0.3,2.5-0.7,3.7c-6.9-1.5-14.1,0.2-21.1-0.6c-3.5-0.3-7,0.3-10.4,0
		c1.6-2.6,4.9-4.6,4.4-8c-0.2-14.2,0.5-28.5-0.1-42.7C297.4,249.1,294.5,247.5,296.1,245.1z"/>
	<path class="st0" d="M333.7,245c4.4,0.9,8.7,1,13.1,0.3c1.6,4.1,4.1,7.9,5,12.3c1.1,2.7,3.2,4.9,4.1,7.6c1.3,3.7,3,7.2,5,10.5
		c0.2-8.4,0-16.8-0.3-25.2c-1.2-1.7-2.7-3.3-3.1-5.4c5.9,0,11.9-0.2,17.8,0.1c-0.8,1.8-2.1,3.4-3.1,5.1c-1.2,5.8-0.3,11.8-0.9,17.7
		c-0.5,4.9,0.4,9.7,0.3,14.6c-0.8,6.1,0,12.2,0,18.3c-3.5,0.1-7.1,0.1-10.6,0.1c-4.8-8.6-8.2-17.8-13.3-26.2
		c0.4,6.7-0.4,13.5,0.1,20.2c-0.1,2.3,1.5,4.1,2.5,6c-5.9,0.3-11.8,0-17.7,0c1.7-2.1,4.4-3.9,4.2-7c0-14.3,0.1-28.6,0-42.9
		C336.1,249,334.2,247.3,333.7,245z"/>
	<path class="st0" d="M381.1,246.4c3.3-1.8,7.4-1.9,10.7,0c-0.7,5.9-1.2,11.9-3.3,17.5c-1.4,0.1-2.9,0.1-4.3,0.2
		C382.8,258.3,382.1,252.3,381.1,246.4z"/>
	<path class="st0" d="M399,246.2c4.9-1.6,10-1,15-1.1c3.7,0.1,7.6-0.5,11.1,1.1c0.5,5.9-0.3,11.9-0.2,17.8c-3.6-0.9-7.2-2-10.8-3
		c-0.1-2-0.1-4-0.2-6c-1.3-0.1-2.6-0.1-3.9,0c0.2,3.2-0.5,6.6,0.4,9.6c4.2,3.5,9.9,4.4,13.9,8.2c0.9,1.6,1.8,3.4,1.7,5.2
		c0,6.3,0.3,12.6-0.1,18.9c-0.4,1.9-1.6,4.5-3.9,4c-7.3,0.2-14.6,0.2-21.9,0.1c-0.7-1.5-1.2-3.2-1.1-4.9c0.1-5.3-0.1-10.6,0.1-15.9
		c0.3-0.2,0.9-0.8,1.1-1c3.4,1,6.4,2.9,9.7,4.2c0,2.6,0,5.1,0,7.7c0.8,0.2,2.3,0.5,3,0.6c0.5-0.5,1.4-1.5,1.9-2
		c0-2.8,0.2-5.7-0.1-8.5c-0.9-3.1-4.8-3.1-6.9-5.1c-2.6-2.4-6.5-2.6-8.8-5.3C398.2,262.7,399.5,254.4,399,246.2z"/>
	<path class="st0" d="M454.1,247.2c1.9-0.9,3.6-2.3,5.8-2.1c5,0,10-0.1,15,0c2.3-0.1,5,1.4,5,4c0.1,3.9,0.1,7.8,0,11.8
		c-3.1,1.8-6.3,3.7-9.9,4.4c-1.8-3.5-0.9-7.5-1.2-11.3c-1.2,0.1-2.5,0.2-3.7,0.4c-2.8,7-0.2,14.5-0.9,21.7
		c-0.5,5.3-0.5,10.6-0.2,15.9c1.9,0.1,3.7,0.1,5.6,0c0.2-2.2,0.2-4.5,0.2-6.8c3.3-2.6,6.9-5.1,11-6c0.2,5-0.1,10,0,15
		c0.1,3.7-3.1,7.5-7,7c-3.3-0.5-6.5,1.5-9.7,0.5c-2.9-0.8-6-0.4-9-0.8c-1.4-1.1-2.5-2.8-2.3-4.7c0.1-15-0.1-30,0.1-45
		C453.4,249.8,453.8,248.5,454.1,247.2z"/>
	<path class="st0" d="M488.7,245.3c6.2-0.1,12.5-0.2,18.7,0c-0.8,2.7-3.6,4.8-3.4,7.8c0.1,13.4-0.3,26.7-0.3,40.1
		c0.8-0.1,2.4-0.2,3.1-0.2c0.1-1.9,0.1-3.9,0.1-5.8c3.5-2.2,6.5-5.7,10.8-6.2c0.8,4.2-0.7,8.3,0,12.5c0.4,2.8-0.3,5.6-0.8,8.4
		c-3.3,0.2-6.7-0.2-10-0.6c-6.2-0.2-12.4,0-18.5,0c1.2-2.3,3.7-4.2,3.5-7c0-13.7-0.1-27.4,0.1-41.1
		C492.1,250.1,489.8,247.9,488.7,245.3z"/>
	<path class="st0" d="M523.6,245.2c5.9-0.1,11.8-0.3,17.6,0.2c-0.7,2.7-3.7,4.6-3.2,7.7c0.1,11.7,0,23.4,0,35.1
		c-0.1,1.4,0.8,2.6,1.3,3.9c2.2,0.1,4.3,0.1,6.5,0.2c2.3-8.2-0.5-16.8,1.1-25c-1.3-5.3-0.9-10.7-1-16c0-2.2-1.7-3.9-2.4-5.9
		c5.6-0.2,11.2-0.1,16.7-0.1c0.3,3.5-3.7,5.8-2.7,9.3c-0.5,4.7,0.7,9.3-0.2,13.9c-0.2,2.7,0.6,5.5-0.2,8.2c-0.8,2.5,0.7,4.9,0.6,7.4
		c-0.1,4.3,0.2,8.6,0,12.9c-0.9,2.9-4.1,4.1-6.9,4.2c-6.3,0.3-12.7,0.5-19,0.4c-2.9,0.1-5.2-2.7-5-5.5c0.2-5.7-1.4-11.3-0.6-17
		c-0.5-5.4,1.1-10.8,0-16.2c0.1-3.9,0.8-7.8,0.6-11.7C526.2,249,524.6,247.3,523.6,245.2z"/>
	<g>
		<path class="st0" d="M566.1,245.6c3.7-0.6,7.3-0.2,10.9,0.4c5.5-1,11.1-1.6,16.7-0.6c3.1,0.6,3.7,4.1,4.3,6.6
			c-1.3,4.4-1,9.1-1,13.6c-1.3,1.2-2.5,2.4-3.7,3.5c2.7,2.4,6.8,4.7,6.7,8.9c-0.6,6.5,0.8,13.2-0.3,19.6c-0.8,3.8-5.5,3.6-8.5,4
			c-8.5-1.3-17-0.2-25.5-0.7c0.7-1.7,2-2.9,3.5-3.9c-0.1-14.7,0.1-29.4,0-44C569.3,250.2,567.3,248,566.1,245.6z M580.1,255.3
			c-0.2,4.4-0.1,8.8,0,13.2c2.8-2.3,6.7-5,6.5-9.2c0-1.7,0.7-3.8-0.8-5.1C583.8,254.2,581.3,253.3,580.1,255.3z M580.1,282.2
			c-0.2,3.3,0,6.6-0.1,9.9c3,0,6.1,0.2,9-0.8c-0.1-4.3,0-8.6,0-12.9c-1-0.9-2-1.8-3-2.7C583.7,277.6,580.6,279,580.1,282.2z"/>
	</g>
	<path class="st0" d="M85.9,312c1.8-0.9,3.7-0.8,5.6-0.6c1.5,7.1,6.6,13.4,13.5,15.8c4.1,1.6,8.7,1.5,13.1,1.7
		c22.7-0.2,45.3,0.2,68-0.1c5.7,6.4,11.8,12.5,18.4,17.9c4.6,3,8.4,7.1,13.3,9.7c7.3,5.2,15.6,8.6,23.6,12.5
		c42.5,18.1,93.4,15.3,133.5-8c8.2-4.4,15.7-10.1,23-16c3.5-3.9,8.1-6.6,11.5-10.6c1.6-1.8,3.3-3.5,4.9-5.3
		c22.6-0.2,45.3-0.2,67.9-0.2c7,0.2,14.7-0.7,19.9-5.9c3.7-3,5.1-7.7,7.1-11.8c1.6,0.1,3.2,0.2,4.8,0.3c-1.2,7-5.1,13.5-10.9,17.8
		c-5,3.4-11,5.1-17,4.9c-17-0.1-34,0-51-0.1c-6.2,0.4-12.5-0.7-18.6,0.2c-6.9,7.1-13.9,14.4-22,20.2c-23.7,17.6-52.4,29.1-82,31
		c-12.1,1.7-24.4,0.3-36.4-1.3c-35.4-5.1-68.5-23.5-92.3-50c-19.2-0.3-38.4,0.1-57.7,0c-7.5-0.2-15.2,0.8-22.4-1.5
		C94.5,329.5,88,321.2,85.9,312z"/>
	<path class="st0" d="M94.1,311.2c1.6,0,3.6-0.1,4,1.9c2.4,5.7,8,9.4,14,10c25.5,0.1,51.1-0.1,76.6,0.1c6.1,6.4,11.7,13.3,18.9,18.4
		c20.7,17.3,46.3,28.6,73,32c3.9,1.1,8,0.2,12,1.1c7.1,1.5,14.3-0.3,21.4-0.5c37.4-3.4,73.2-22.1,97.1-51.1
		c25.3,0.1,50.6-0.1,75.9,0c6.9-0.2,13.8-4.8,15.5-11.7c1.1,0,2.3-0.1,3.4-0.1c-0.1,5.1-4.2,9-7.9,12c-2.4,1.5-5.2,3-8.1,2.9
		c-25.6,0-51.2,0-76.7,0c-12.4,14.3-27.2,26.5-44,35.3c-18.4,9.5-38.6,15.4-59.3,16.7c-6.7,0-13.4,0-20.1,0
		c-39.4-2.7-77.8-21.5-103.1-52c-26.2,0-52.5,0.1-78.7-0.1C101.2,324.5,94.7,318.5,94.1,311.2z"/>
	<g>
		<path class="st0" d="M262.6,324.5c2.7-1.1,5.6-0.6,8.4-0.3c0.1,1.4,0.2,2.9,0.3,4.3c-2-1.5-4-3-6.7-2.5c1.5,2.5,4.7,2.5,7.2,3.5
			c0.7,2.1,1.2,5-1.1,6.4c-2.7,0.6-5.5,0.1-8.3,0.1c-0.2-0.8-0.7-2.5-0.9-3.3c-0.9,0.9-1.6,2.1-2,3.3c-3.9,0.2-7.7,0.2-11.6,0.1
			c3.1-3.2,3.1-8.8,0-12c3.7,0,7.4,0,11.1,0c0.7,1.3,1.4,2.5,2.1,3.8C261.6,326.7,262.1,325.6,262.6,324.5z M253.3,326.5
			c-1.3,1.5,1.4,2.6,2.1,1C257,326,254.1,325.2,253.3,326.5z M257,327.1c0,1.9,0,3.8,0,5.6c-1.3-0.7-2.7-1.3-4-2
			c0.1,0.9,0.3,2.6,0.4,3.4c2.5,0.2,4.8-0.6,6.1-2.8c1-0.1,2.1-0.1,3.2-0.2c0.8,1,1.6,2,2.4,3.1c1.4,0,2.8-0.1,4.2-0.1
			c-0.1-3.3-4.6-2-6.4-3.8C261.3,328.5,259.1,327.9,257,327.1z"/>
	</g>
	<path class="st0" d="M302.2,324.4c2.4-0.8,5.1-1.4,7.4,0c2.3,0.9,1.3,3.5,1.4,5.4c-1.4,1.2-2.9,2.3-4.3,3.6
		c1.9-0.3,3.7-0.9,5.5-1.4c-0.5,1.4-1,2.8-1.5,4.1c-3.4,0-6.8,0-10.2-0.1c1.3-4.1,7.5-4.9,6.6-9.9c-0.8,0-2.4-0.1-3.2-0.1
		c0.2,1,0.5,2.1,0.8,3.2c-1.2-0.1-2.4-0.2-3.6-0.3C301.4,327.3,301.8,325.9,302.2,324.4z"/>
	<path class="st0" d="M273.3,324.2c3.5-0.1,7-0.1,10.5-0.1c0.5,1.4,1,2.9,1.5,4.4c-1.8-0.3-3.1-1.5-4.4-2.6
		c-0.1,3.6-0.6,7.3,1.6,10.4c-2.6-0.1-5.2-0.1-7.8-0.1c3.3-2.5,2.1-6.8,2.3-10.4c-1.5,1.1-2.9,2.3-4.7,2.8
		C272.6,327,273,325.6,273.3,324.2z"/>
	<g>
		<path class="st0" d="M315.3,324.2c1.8-0.3,3.7-0.6,5.5,0c5.4,2.5,3.8,12.9-2.6,12.6C312.1,336.4,310.9,327.4,315.3,324.2z
			 M317.1,334.3c1.3-0.3,3.3-0.4,2.9-2.3c0.3-2.6,0.2-5.4-2.3-7C316.2,327.9,315.9,331.2,317.1,334.3z"/>
	</g>
</g>
<g>
	<path class="st0" d="M325.8,324.3c2.1-0.2,4.2-0.2,6.2-0.3c0,3.2,0,6.4,0,9.6c1.4,0.3,2.2,1.2,2.4,2.5c-2.9-0.1-5.9-0.1-8.8-0.1
		C329.4,333.2,328.7,327.6,325.8,324.3z"/>
	<path class="st0" d="M335.9,328.9c-0.9-4.6,4.4-6.1,7.9-4.9c3,0.2,2,3.7,2.2,5.8c-1.5,1.1-2.9,2.2-4.3,3.5c2,0.4,3.6-1.1,5.4-1.5
		c-0.4,1.5-0.9,2.9-1.4,4.4c-3.4,0-6.8,0-10.1-0.1c1.1-4.2,8-5.1,6.5-10.4c-2.4-0.1-3.2,1.4-2.9,3.6
		C338.4,329.1,336.7,329,335.9,328.9z"/>
	<path class="st0" d="M290.1,333.2c0.7-0.1,2.2-0.2,3-0.3c0.2,1,0.5,1.9,0.7,2.9c-1.2,0.1-2.5,0.2-3.7,0.3
		C290.1,335.4,290.1,334,290.1,333.2z"/>
</g>
</svg>
